<mxfile host="Electron" modified="2023-09-06T07:35:59.092Z" agent="Mozilla/5.0 (Macintosh; Intel Mac OS X 10_15_7) AppleWebKit/537.36 (KHTML, like Gecko) draw.io/21.6.8 Chrome/114.0.5735.289 Electron/25.5.0 Safari/537.36" etag="Dsw0Tz2UQhNDueE577O5" version="21.6.8" type="device">
  <diagram name="第 1 页" id="t8X5N_bDICMOE2lCqtk4">
    <mxGraphModel dx="1026" dy="743" grid="1" gridSize="10" guides="1" tooltips="1" connect="1" arrows="1" fold="1" page="1" pageScale="1" pageWidth="827" pageHeight="1169" math="0" shadow="0">
      <root>
        <mxCell id="0" />
        <mxCell id="1" parent="0" />
        <mxCell id="O8AoK5pldU6BCZB9kP4r-1" value="Kind: Cluster&lt;br&gt;&lt;br&gt;&lt;br&gt;&lt;br&gt;&lt;br&gt;&lt;br&gt;&lt;br&gt;&lt;br&gt;&lt;br&gt;&lt;br&gt;&lt;br&gt;&lt;br&gt;&lt;br&gt;&lt;br&gt;&lt;br&gt;" style="rounded=1;whiteSpace=wrap;html=1;fillColor=#dae8fc;strokeColor=#6c8ebf;strokeWidth=3;fontSize=15;" parent="1" vertex="1">
          <mxGeometry x="80" y="320" width="200" height="320" as="geometry" />
        </mxCell>
        <mxCell id="O8AoK5pldU6BCZB9kP4r-2" value="Kind: ClusterDefinition&lt;br&gt;&lt;br&gt;&lt;br&gt;&lt;br&gt;&lt;br&gt;&lt;br&gt;&lt;br&gt;&lt;br&gt;&lt;br&gt;" style="rounded=1;whiteSpace=wrap;html=1;fillColor=#fff2cc;strokeColor=#d6b656;strokeWidth=3;fontSize=15;" parent="1" vertex="1">
          <mxGeometry x="400" y="480" width="200" height="240" as="geometry" />
        </mxCell>
        <mxCell id="O8AoK5pldU6BCZB9kP4r-3" value="Kind: ClusterVersion&lt;br&gt;&lt;br&gt;&lt;br&gt;&lt;br&gt;&lt;br&gt;&lt;br&gt;&lt;br&gt;&lt;br&gt;&lt;br&gt;" style="rounded=1;whiteSpace=wrap;html=1;fillColor=#d5e8d4;strokeColor=#82b366;strokeWidth=3;fontSize=15;" parent="1" vertex="1">
          <mxGeometry x="400" y="160" width="200" height="240" as="geometry" />
        </mxCell>
        <mxCell id="O8AoK5pldU6BCZB9kP4r-10" value="ComponentDef: A" style="rounded=1;whiteSpace=wrap;html=1;fillColor=#FF3333;strokeColor=#B20000;fontColor=#ffffff;arcSize=50;" parent="1" vertex="1">
          <mxGeometry x="427.5" y="560" width="145" height="40" as="geometry" />
        </mxCell>
        <mxCell id="O8AoK5pldU6BCZB9kP4r-11" value="ComponentDef: B" style="rounded=1;whiteSpace=wrap;html=1;fillColor=#FF3333;strokeColor=#B20000;fontColor=#ffffff;arcSize=50;" parent="1" vertex="1">
          <mxGeometry x="427.5" y="610" width="145" height="40" as="geometry" />
        </mxCell>
        <mxCell id="O8AoK5pldU6BCZB9kP4r-12" value="ComponentDef: C" style="rounded=1;whiteSpace=wrap;html=1;fillColor=#FF3333;strokeColor=#B20000;fontColor=#ffffff;arcSize=50;" parent="1" vertex="1">
          <mxGeometry x="427.5" y="660" width="145" height="40" as="geometry" />
        </mxCell>
        <mxCell id="O8AoK5pldU6BCZB9kP4r-16" value="" style="group" parent="1" vertex="1" connectable="0">
          <mxGeometry x="107.5" y="380" width="145" height="240" as="geometry" />
        </mxCell>
        <mxCell id="O8AoK5pldU6BCZB9kP4r-4" value="ClusterVersionRef" style="rounded=1;whiteSpace=wrap;html=1;fillColor=#d5e8d4;strokeColor=#82b366;arcSize=50;fontSize=13;" parent="O8AoK5pldU6BCZB9kP4r-16" vertex="1">
          <mxGeometry width="145" height="40" as="geometry" />
        </mxCell>
        <mxCell id="O8AoK5pldU6BCZB9kP4r-9" value="ClusterDefinitionRef" style="rounded=1;whiteSpace=wrap;html=1;fillColor=#fff2cc;strokeColor=#d6b656;arcSize=50;fontSize=13;" parent="O8AoK5pldU6BCZB9kP4r-16" vertex="1">
          <mxGeometry y="50" width="145" height="40" as="geometry" />
        </mxCell>
        <mxCell id="O8AoK5pldU6BCZB9kP4r-13" value="ComponentDefRef: A" style="rounded=1;whiteSpace=wrap;html=1;fillColor=#f8cecc;strokeColor=#b85450;arcSize=50;fontSize=13;" parent="O8AoK5pldU6BCZB9kP4r-16" vertex="1">
          <mxGeometry y="100" width="145" height="40" as="geometry" />
        </mxCell>
        <mxCell id="O8AoK5pldU6BCZB9kP4r-14" value="ComponentDefRef: B" style="rounded=1;whiteSpace=wrap;html=1;fillColor=#f8cecc;strokeColor=#b85450;arcSize=50;fontSize=13;" parent="O8AoK5pldU6BCZB9kP4r-16" vertex="1">
          <mxGeometry y="150" width="145" height="40" as="geometry" />
        </mxCell>
        <mxCell id="O8AoK5pldU6BCZB9kP4r-15" value="ComponentDefRef: C" style="rounded=1;whiteSpace=wrap;html=1;fillColor=#f8cecc;strokeColor=#b85450;arcSize=50;fontSize=13;" parent="O8AoK5pldU6BCZB9kP4r-16" vertex="1">
          <mxGeometry y="200" width="145" height="40" as="geometry" />
        </mxCell>
        <mxCell id="O8AoK5pldU6BCZB9kP4r-19" style="edgeStyle=orthogonalEdgeStyle;rounded=1;orthogonalLoop=1;jettySize=auto;html=1;exitX=1;exitY=0.5;exitDx=0;exitDy=0;entryX=0;entryY=0.583;entryDx=0;entryDy=0;strokeWidth=3;strokeColor=#A8A8A8;entryPerimeter=0;" parent="1" source="O8AoK5pldU6BCZB9kP4r-4" target="O8AoK5pldU6BCZB9kP4r-3" edge="1">
          <mxGeometry relative="1" as="geometry" />
        </mxCell>
        <mxCell id="O8AoK5pldU6BCZB9kP4r-20" style="rounded=1;orthogonalLoop=1;jettySize=auto;html=1;exitX=1;exitY=0.5;exitDx=0;exitDy=0;entryX=0;entryY=0.5;entryDx=0;entryDy=0;edgeStyle=orthogonalEdgeStyle;strokeWidth=3;dashed=1;fillColor=#f8cecc;strokeColor=#FF6666;" parent="1" source="O8AoK5pldU6BCZB9kP4r-13" target="O8AoK5pldU6BCZB9kP4r-10" edge="1">
          <mxGeometry relative="1" as="geometry">
            <Array as="points">
              <mxPoint x="360" y="500" />
              <mxPoint x="360" y="580" />
            </Array>
          </mxGeometry>
        </mxCell>
        <mxCell id="O8AoK5pldU6BCZB9kP4r-21" style="edgeStyle=orthogonalEdgeStyle;rounded=1;orthogonalLoop=1;jettySize=auto;html=1;exitX=1;exitY=0.5;exitDx=0;exitDy=0;entryX=0.5;entryY=0;entryDx=0;entryDy=0;strokeWidth=3;strokeColor=#A8A8A8;" parent="1" source="O8AoK5pldU6BCZB9kP4r-9" target="O8AoK5pldU6BCZB9kP4r-2" edge="1">
          <mxGeometry relative="1" as="geometry" />
        </mxCell>
        <mxCell id="O8AoK5pldU6BCZB9kP4r-22" style="edgeStyle=orthogonalEdgeStyle;rounded=1;orthogonalLoop=1;jettySize=auto;html=1;exitX=1;exitY=0.5;exitDx=0;exitDy=0;entryX=0;entryY=0.5;entryDx=0;entryDy=0;strokeWidth=3;dashed=1;fillColor=#f8cecc;strokeColor=#FF6666;" parent="1" source="O8AoK5pldU6BCZB9kP4r-14" target="O8AoK5pldU6BCZB9kP4r-11" edge="1">
          <mxGeometry relative="1" as="geometry">
            <Array as="points">
              <mxPoint x="330" y="550" />
              <mxPoint x="330" y="630" />
            </Array>
          </mxGeometry>
        </mxCell>
        <mxCell id="O8AoK5pldU6BCZB9kP4r-23" style="edgeStyle=orthogonalEdgeStyle;rounded=1;orthogonalLoop=1;jettySize=auto;html=1;exitX=1;exitY=0.5;exitDx=0;exitDy=0;entryX=0;entryY=0.5;entryDx=0;entryDy=0;dashed=1;strokeWidth=3;fillColor=#f8cecc;strokeColor=#FF6666;" parent="1" source="O8AoK5pldU6BCZB9kP4r-15" target="O8AoK5pldU6BCZB9kP4r-12" edge="1">
          <mxGeometry relative="1" as="geometry">
            <Array as="points">
              <mxPoint x="300" y="600" />
              <mxPoint x="300" y="680" />
            </Array>
          </mxGeometry>
        </mxCell>
        <mxCell id="O8AoK5pldU6BCZB9kP4r-27" style="edgeStyle=orthogonalEdgeStyle;rounded=1;orthogonalLoop=1;jettySize=auto;html=1;exitX=1;exitY=0.5;exitDx=0;exitDy=0;entryX=1;entryY=0.5;entryDx=0;entryDy=0;strokeWidth=3;dashed=1;fillColor=#fa6800;strokeColor=#FF6666;" parent="1" source="O8AoK5pldU6BCZB9kP4r-24" target="O8AoK5pldU6BCZB9kP4r-10" edge="1">
          <mxGeometry relative="1" as="geometry">
            <Array as="points">
              <mxPoint x="640" y="260" />
              <mxPoint x="640" y="580" />
            </Array>
          </mxGeometry>
        </mxCell>
        <mxCell id="O8AoK5pldU6BCZB9kP4r-24" value="ComponentDefRef: A" style="rounded=1;whiteSpace=wrap;html=1;fillColor=#f8cecc;strokeColor=#b85450;arcSize=50;" parent="1" vertex="1">
          <mxGeometry x="427.5" y="240" width="145" height="40" as="geometry" />
        </mxCell>
        <mxCell id="O8AoK5pldU6BCZB9kP4r-28" style="edgeStyle=orthogonalEdgeStyle;rounded=1;orthogonalLoop=1;jettySize=auto;html=1;exitX=1;exitY=0.5;exitDx=0;exitDy=0;entryX=1;entryY=0.5;entryDx=0;entryDy=0;strokeWidth=3;dashed=1;strokeColor=#FF6666;" parent="1" source="O8AoK5pldU6BCZB9kP4r-25" target="O8AoK5pldU6BCZB9kP4r-11" edge="1">
          <mxGeometry relative="1" as="geometry">
            <Array as="points">
              <mxPoint x="680" y="310" />
              <mxPoint x="680" y="630" />
            </Array>
          </mxGeometry>
        </mxCell>
        <mxCell id="O8AoK5pldU6BCZB9kP4r-25" value="ComponentDefRef: B" style="rounded=1;whiteSpace=wrap;html=1;fillColor=#f8cecc;strokeColor=#b85450;arcSize=50;" parent="1" vertex="1">
          <mxGeometry x="427.5" y="290" width="145" height="40" as="geometry" />
        </mxCell>
        <mxCell id="O8AoK5pldU6BCZB9kP4r-29" style="edgeStyle=orthogonalEdgeStyle;rounded=1;orthogonalLoop=1;jettySize=auto;html=1;exitX=1;exitY=0.5;exitDx=0;exitDy=0;entryX=1;entryY=0.5;entryDx=0;entryDy=0;strokeWidth=3;strokeColor=#FF6666;dashed=1;" parent="1" source="O8AoK5pldU6BCZB9kP4r-26" target="O8AoK5pldU6BCZB9kP4r-12" edge="1">
          <mxGeometry relative="1" as="geometry">
            <Array as="points">
              <mxPoint x="720" y="360" />
              <mxPoint x="720" y="680" />
            </Array>
          </mxGeometry>
        </mxCell>
        <mxCell id="O8AoK5pldU6BCZB9kP4r-26" value="ComponentDefRef: C" style="rounded=1;whiteSpace=wrap;html=1;fillColor=#f8cecc;strokeColor=#b85450;arcSize=50;" parent="1" vertex="1">
          <mxGeometry x="427.5" y="340" width="145" height="40" as="geometry" />
        </mxCell>
      </root>
    </mxGraphModel>
  </diagram>
</mxfile>
